<?xml version="1.0" standalone="no"?>
<!DOCTYPE svg PUBLIC "-//W3C//DTD SVG 20010904//EN"
 "http://www.w3.org/TR/2001/REC-SVG-20010904/DTD/svg10.dtd">
<svg version="1.0" xmlns="http://www.w3.org/2000/svg"
 width="512.000000pt" height="512.000000pt" viewBox="0 0 512.000000 512.000000"
 preserveAspectRatio="xMidYMid meet">

<g transform="translate(0.000000,512.000000) scale(0.100000,-0.100000)"
fill="#000000" stroke="none">
<path d="M0 2560 l0 -2560 2560 0 2560 0 0 2560 0 2560 -2560 0 -2560 0 0
-2560z m2837 2216 c116 -31 221 -109 281 -209 77 -128 116 -255 282 -912 92
-363 140 -543 196 -736 4 -14 31 -17 182 -22 195 -6 292 -22 380 -64 72 -34
146 -103 180 -168 23 -44 27 -62 27 -145 0 -110 -15 -150 -78 -213 -57 -57
-104 -73 -282 -97 -88 -12 -162 -24 -164 -26 -10 -9 186 -469 290 -679 177
-359 274 -498 455 -650 141 -119 123 -354 -35 -454 -60 -38 -99 -48 -259 -62
-269 -23 -552 25 -763 131 -220 109 -369 261 -487 495 -50 100 -176 435 -232
620 -24 77 -47 144 -51 148 -9 11 -233 -101 -359 -178 -199 -123 -384 -278
-581 -487 -184 -196 -228 -248 -281 -338 -112 -187 -185 -266 -309 -334 -83
-45 -168 -66 -265 -66 -101 1 -152 12 -242 57 -171 84 -277 254 -289 464 -6
106 0 144 53 304 205 629 1119 2477 1527 3090 166 250 301 378 516 493 91 48
213 63 308 38z"/>
<path d="M2697 4490 c-85 -26 -252 -153 -329 -250 -390 -487 -1603 -2945
-1645 -3331 -16 -158 94 -289 244 -289 115 0 215 81 320 260 92 158 419 510
651 703 209 173 519 356 792 466 l75 30 -62 1 c-113 0 -328 -53 -480 -120 -50
-23 -62 -25 -43 -10 36 28 288 152 405 198 141 55 269 102 283 102 6 0 17 -24
25 -52 76 -273 123 -428 184 -613 183 -557 291 -727 538 -851 141 -70 248 -95
446 -101 91 -3 192 -2 225 2 l59 7 -25 19 c-197 155 -411 499 -636 1024 -109
255 -264 672 -264 710 0 19 362 91 553 111 80 8 86 25 22 61 -78 42 -262 51
-567 26 l-76 -6 -32 104 c-67 215 -143 497 -241 884 -159 632 -199 766 -255
847 -14 20 -36 44 -49 52 -30 20 -84 27 -118 16z m53 -1585 c54 -220 97 -401
96 -403 -2 -2 -73 -18 -157 -37 -173 -39 -512 -132 -618 -169 -24 -9 -45 -16
-47 -16 -12 0 -2 23 145 354 10 22 35 79 56 126 21 47 60 132 86 189 27 57 49
105 49 107 0 3 31 69 198 424 l35 75 29 -125 c16 -69 74 -305 128 -525z"/>
</g>
</svg>
